<svg width="40" height="41" viewBox="0 0 40 41" fill="none" xmlns="http://www.w3.org/2000/svg">
<g filter="url(#filter0_d_462_10430)">
<path fill-rule="evenodd" clip-rule="evenodd" d="M19.9993 37.2611C29.2562 37.2611 36.7604 29.7569 36.7604 20.5C36.7604 11.2431 29.2562 3.73895 19.9993 3.73895C10.7425 3.73895 3.23828 11.2431 3.23828 20.5C3.23828 29.7569 10.7425 37.2611 19.9993 37.2611ZM19.9993 34.6421C27.8098 34.6421 34.1415 28.3105 34.1415 20.5C34.1415 12.6895 27.8098 6.35787 19.9993 6.35787C12.1888 6.35787 5.8572 12.6895 5.8572 20.5C5.8572 28.3105 12.1888 34.6421 19.9993 34.6421Z" fill="url(#paint0_radial_462_10430)"/>
</g>
<g filter="url(#filter1_d_462_10430)">
<path fill-rule="evenodd" clip-rule="evenodd" d="M19.9996 34.6421C27.81 34.6421 34.1417 28.3105 34.1417 20.5C34.1417 12.6895 27.81 6.35785 19.9996 6.35785C12.1891 6.35785 5.85742 12.6895 5.85742 20.5C5.85742 28.3105 12.1891 34.6421 19.9996 34.6421Z" fill="#00E7CA"/>
<path d="M34.1417 20.5C34.1417 28.3105 27.81 34.6421 19.9996 34.6421C12.1891 34.6421 5.85742 28.3105 5.85742 20.5C5.85742 12.6895 12.1891 6.35785 19.9996 6.35785C27.81 6.35785 34.1417 12.6895 34.1417 20.5Z" fill="#00E7CA"/>
</g>
<g opacity="0.9" filter="url(#filter2_i_462_10430)">
<path fill-rule="evenodd" clip-rule="evenodd" d="M19.9996 34.6421C27.81 34.6421 34.1417 28.3105 34.1417 20.5C34.1417 12.6895 27.81 6.35785 19.9996 6.35785C12.1891 6.35785 5.85742 12.6895 5.85742 20.5C5.85742 28.3105 12.1891 34.6421 19.9996 34.6421Z" fill="#00E7CA"/>
<path d="M34.1417 20.5C34.1417 28.3105 27.81 34.6421 19.9996 34.6421C12.1891 34.6421 5.85742 28.3105 5.85742 20.5C5.85742 12.6895 12.1891 6.35785 19.9996 6.35785C27.81 6.35785 34.1417 12.6895 34.1417 20.5Z" fill="#00E7CA"/>
</g>
<g opacity="0.7" filter="url(#filter3_i_462_10430)">
<path fill-rule="evenodd" clip-rule="evenodd" d="M19.9996 34.6421C27.81 34.6421 34.1417 28.3105 34.1417 20.5C34.1417 12.6895 27.81 6.35785 19.9996 6.35785C12.1891 6.35785 5.85742 12.6895 5.85742 20.5C5.85742 28.3105 12.1891 34.6421 19.9996 34.6421Z" fill="#00E7CA" fill-opacity="0.7"/>
<path d="M34.1417 20.5C34.1417 28.3105 27.81 34.6421 19.9996 34.6421C12.1891 34.6421 5.85742 28.3105 5.85742 20.5C5.85742 12.6895 12.1891 6.35785 19.9996 6.35785C27.81 6.35785 34.1417 12.6895 34.1417 20.5Z" fill="#00E7CA" fill-opacity="0.7"/>
</g>
<mask id="mask0_462_10430" style="mask-type:alpha" maskUnits="userSpaceOnUse" x="5" y="6" width="30" height="29">
<g opacity="0.7">
<path fill-rule="evenodd" clip-rule="evenodd" d="M20.0015 34.6422C27.812 34.6422 34.1436 28.3105 34.1436 20.5C34.1436 12.6895 27.812 6.35788 20.0015 6.35788C12.191 6.35788 5.85938 12.6895 5.85938 20.5C5.85938 28.3105 12.191 34.6422 20.0015 34.6422Z" fill="#FFB34F" fill-opacity="0.2"/>
<path d="M34.1436 20.5C34.1436 28.3105 27.812 34.6422 20.0015 34.6422C12.191 34.6422 5.85938 28.3105 5.85938 20.5C5.85938 12.6895 12.191 6.35788 20.0015 6.35788C27.812 6.35788 34.1436 12.6895 34.1436 20.5Z" fill="#FFB34F" fill-opacity="0.2"/>
</g>
</mask>
<g mask="url(#mask0_462_10430)">
<g opacity="0.2" filter="url(#filter4_f_462_10430)">
<path d="M34.1426 15.5241C23.5022 11.3194 17.6609 11.4728 7.42969 15.5241V4.78653L34.1426 4.00085V15.5241Z" fill="black"/>
<path d="M34.1426 15.5241C23.5022 11.3194 17.6609 11.4728 7.42969 15.5241V4.78653L34.1426 4.00085V15.5241Z" stroke="black" stroke-width="0.523783"/>
</g>
</g>
<path fill-rule="evenodd" clip-rule="evenodd" d="M19.9996 34.6421C27.81 34.6421 34.1417 28.3105 34.1417 20.5C34.1417 12.6895 27.81 6.35785 19.9996 6.35785C12.1891 6.35785 5.85742 12.6895 5.85742 20.5C5.85742 28.3105 12.1891 34.6421 19.9996 34.6421ZM19.9996 33.48C26.5897 33.48 32.9795 27.0901 32.9795 20.5C32.9795 13.9099 26.5897 7.51999 19.9996 7.51999C13.4095 7.51999 7.01956 13.9099 7.01956 20.5C7.01956 27.0901 13.4095 33.48 19.9996 33.48Z" fill="url(#paint1_linear_462_10430)"/>
<path fill-rule="evenodd" clip-rule="evenodd" d="M10 10.5C4.47715 16.0228 4.47715 24.9771 10 30.5C15.5228 36.0228 24.4772 36.0228 30 30.5C35.5228 24.9771 35.5228 16.0228 30 10.5C24.4772 4.97714 15.5228 4.97714 10 10.5ZM10.8218 11.3217C6.16186 15.9816 6.16186 25.0183 10.8218 29.6782C15.4817 34.3381 24.5183 34.3381 29.1782 29.6782C33.8381 25.0183 33.8381 15.9816 29.1782 11.3217C24.5183 6.66184 15.4817 6.66184 10.8218 11.3217Z" fill="url(#paint2_linear_462_10430)"/>
<path d="M23.1135 11.6351C22.0692 11.7784 21.3397 12.4256 20.7586 13.6829C20.2057 15.4849 20.2445 16.8072 21.1067 19.048C21.6425 20.5263 22.2632 21.2492 23.5845 22.4677C25.0507 23.3547 25.7403 23.3677 26.779 22.693C24.8746 23.3278 22.9943 21.1776 22.0692 19.1299C20.5588 15.7868 20.9224 13.1709 23.1135 11.6351Z" fill="url(#paint3_linear_462_10430)"/>
<path fill-rule="evenodd" clip-rule="evenodd" d="M27.8234 16.9797C26.695 13.6771 25.366 11.9627 23.1135 11.6351C20.9224 13.1709 20.5588 15.7868 22.0692 19.1299C22.9943 21.1776 24.8746 23.3278 26.779 22.693C28.11 21.8283 28.5216 19.6409 27.8234 16.9797ZM26.0009 22.1606C24.7811 22.0165 24.0207 21.4086 22.9786 19.7237C22.7889 19.4171 22.5899 19.0747 22.3771 18.693C22.3493 18.6432 22.3283 18.59 22.3146 18.5347C22.1001 17.6727 21.9549 16.9608 21.868 16.3654C21.5024 13.8606 22.1686 13.4176 23.0521 12.5361C25.3046 12.3313 26.82 14.8296 27.3729 16.6316C28.622 20.379 27.1681 22.1606 26.0009 22.1606Z" fill="url(#paint4_linear_462_10430)"/>
<path d="M24.506 15.7511C25.5299 15.7511 26.4514 17.7784 25.5094 18.4541C24.1988 18.6999 23.7278 16.3859 24.506 15.7511Z" fill="url(#paint5_linear_462_10430)"/>
<path d="M21.868 16.3654C21.9549 16.9608 22.1001 17.6727 22.3146 18.5347C22.3283 18.59 22.3493 18.6432 22.3771 18.693C22.5899 19.0747 22.7889 19.4171 22.9786 19.7237L25.5094 18.4541C24.1988 18.6999 23.7278 16.3859 24.506 15.7511L21.868 16.3654Z" fill="url(#paint6_linear_462_10430)"/>
<path d="M27.0862 16.9797C26.3062 14.3313 24.977 12.9457 23.0521 12.5361C22.1686 13.4176 21.5024 13.8606 21.868 16.3654L24.506 15.7511C25.5299 15.7511 26.4514 17.7784 25.5094 18.4541L22.9786 19.7237C24.0207 21.4086 24.7811 22.0165 26.0009 22.1606C27.5856 21.1771 27.68 19.2732 27.0862 16.9797Z" fill="url(#paint7_linear_462_10430)"/>
<path d="M23.0521 12.5361C24.977 12.9457 26.3062 14.3313 27.0862 16.9797C27.68 19.2732 27.5856 21.1771 26.0009 22.1606C27.1681 22.1606 28.622 20.379 27.3729 16.6316C26.82 14.8296 25.3046 12.3313 23.0521 12.5361Z" fill="url(#paint8_linear_462_10430)"/>
<path d="M20.7586 13.6829C19.6616 15.6286 18.6961 16.58 16.5011 18.0704C16.4864 18.0803 16.4707 18.0893 16.4547 18.0967L15.684 18.4541C15.2706 20.0719 15.844 21.9353 17.3798 22.3858L17.9941 22.181C20.5564 21.9237 21.7779 21.6887 23.5845 22.4677C22.2632 21.2492 21.6425 20.5263 21.1067 19.048C20.2445 16.8072 20.2057 15.4849 20.7586 13.6829Z" fill="url(#paint9_linear_462_10430)"/>
<path d="M18.2926 26.2142C18.2849 26.2014 18.2808 26.1868 18.2808 26.1719V24.8022L17.216 25.1093V26.479C17.216 26.4939 17.2201 26.5086 17.2278 26.5213L17.9941 27.7919L18.8538 27.5439C18.9573 27.5141 19.0043 27.3941 18.9487 27.3019L18.2926 26.2142Z" fill="url(#paint10_linear_462_10430)"/>
<path d="M17.4011 23.6226C17.3875 23.6043 17.3821 23.5813 17.3862 23.5589L17.5436 22.693L16.4788 23.0001L16.3213 23.8661C16.3173 23.8885 16.3227 23.9115 16.3363 23.9297L17.216 25.1093L18.2808 24.8022L17.4011 23.6226Z" fill="url(#paint11_linear_462_10430)"/>
<path d="M17.5436 22.693L17.3798 22.3858L16.3393 22.686C16.3268 22.6896 16.3207 22.7038 16.3269 22.7153L16.4788 23.0001L17.5436 22.693Z" fill="url(#paint12_linear_462_10430)"/>
<path d="M16.1835 27.2557C16.1891 27.2715 16.1973 27.2869 16.2076 27.3002C16.656 27.8766 17.2342 27.997 17.9941 27.7919L17.2278 26.5213C17.2201 26.5086 17.216 26.4939 17.216 26.479V25.1093L16.3363 23.9297C16.3227 23.9115 16.3173 23.8885 16.3213 23.8661L16.4788 23.0001L16.3269 22.7153C16.3207 22.7038 16.3268 22.6896 16.3393 22.686L17.3798 22.3858C15.844 21.9353 15.2706 20.0719 15.684 18.4541L12.2927 20.0269C12.2578 20.0431 12.2257 20.065 12.1998 20.0934C11.8274 20.5009 11.7889 21.0768 12.0147 21.8534C12.3104 22.778 12.5935 23.1896 13.6355 23.3824C13.6601 23.3869 13.6858 23.3856 13.7098 23.3787L14.9411 23.0243C14.9865 23.0112 15.0337 23.0398 15.0439 23.0859C15.4121 24.747 15.5672 25.523 16.1835 27.2557Z" fill="url(#paint13_linear_462_10430)"/>
<path d="M17.9941 27.7919C17.2342 27.997 16.656 27.8766 16.2076 27.3002C16.1973 27.2869 16.1891 27.2715 16.1835 27.2557C15.5672 25.523 15.4121 24.747 15.0439 23.0859C15.0337 23.0398 14.9865 23.0112 14.9411 23.0243L13.7098 23.3787C13.6858 23.3856 13.6601 23.3869 13.6355 23.3824C12.5935 23.1896 12.3104 22.778 12.0147 21.8534C11.7889 21.0768 11.8274 20.5009 12.1998 20.0934C12.2257 20.065 12.2578 20.0431 12.2927 20.0269L15.684 18.4541M17.9941 27.7919L18.8538 27.5439C18.9573 27.5141 19.0043 27.3941 18.9487 27.3019L18.2926 26.2142C18.2849 26.2014 18.2808 26.1868 18.2808 26.1719V24.8022M17.9941 27.7919L17.2278 26.5213C17.2201 26.5086 17.216 26.4939 17.216 26.479V25.1093M20.7586 13.6829C19.6616 15.6286 18.6961 16.58 16.5011 18.0704C16.4864 18.0803 16.4707 18.0893 16.4547 18.0967L15.684 18.4541M20.7586 13.6829C21.3397 12.4256 22.0692 11.7784 23.1135 11.6351M20.7586 13.6829C20.2057 15.4849 20.2445 16.8072 21.1067 19.048C21.6425 20.5263 22.2632 21.2492 23.5845 22.4677M23.1135 11.6351C25.366 11.9627 26.695 13.6771 27.8234 16.9797C28.5216 19.6409 28.11 21.8283 26.779 22.693M23.1135 11.6351C20.9224 13.1709 20.5588 15.7868 22.0692 19.1299C22.9943 21.1776 24.8746 23.3278 26.779 22.693M26.779 22.693C25.7403 23.3677 25.0507 23.3547 23.5845 22.4677M23.5845 22.4677C21.7779 21.6887 20.5564 21.9237 17.9941 22.181L17.3798 22.3858M17.3798 22.3858L17.5436 22.693M17.3798 22.3858C15.844 21.9353 15.2706 20.0719 15.684 18.4541M17.3798 22.3858L16.3393 22.686C16.3268 22.6896 16.3207 22.7038 16.3269 22.7153L16.4788 23.0001M17.5436 22.693L17.3862 23.5589C17.3821 23.5813 17.3875 23.6043 17.4011 23.6226L18.2808 24.8022M17.5436 22.693L16.4788 23.0001M18.2808 24.8022L17.216 25.1093M23.0521 12.5361C24.977 12.9457 26.3062 14.3313 27.0862 16.9797C27.68 19.2732 27.5856 21.1771 26.0009 22.1606M23.0521 12.5361C25.3046 12.3313 26.82 14.8296 27.3729 16.6316C28.622 20.379 27.1681 22.1606 26.0009 22.1606M23.0521 12.5361C22.1686 13.4176 21.5024 13.8606 21.868 16.3654M26.0009 22.1606C24.7811 22.0165 24.0207 21.4086 22.9786 19.7237M21.868 16.3654C21.9549 16.9608 22.1001 17.6727 22.3146 18.5347C22.3283 18.59 22.3493 18.6432 22.3771 18.693C22.5899 19.0747 22.7889 19.4171 22.9786 19.7237M21.868 16.3654L24.506 15.7511M24.506 15.7511C25.5299 15.7511 26.4514 17.7784 25.5094 18.4541M24.506 15.7511C23.7278 16.3859 24.1988 18.6999 25.5094 18.4541M25.5094 18.4541L22.9786 19.7237M16.4788 23.0001L16.3213 23.8661C16.3173 23.8885 16.3227 23.9115 16.3363 23.9297L17.216 25.1093" stroke="#2C1B00" stroke-width="0.3125"/>
<path d="M23.7385 11.0101C22.6942 11.1534 21.9647 11.8006 21.3836 13.0579C20.8307 14.8599 20.8695 16.1822 21.7317 18.423C22.2675 19.9013 22.8882 20.6242 24.2095 21.8427C25.6757 22.7297 26.3653 22.7427 27.404 22.068C25.4996 22.7028 23.6193 20.5526 22.6942 18.5049C21.1838 15.1618 21.5474 12.5459 23.7385 11.0101Z" fill="url(#paint14_linear_462_10430)"/>
<path fill-rule="evenodd" clip-rule="evenodd" d="M28.4484 16.3547C27.32 13.0521 25.991 11.3377 23.7385 11.0101C21.5474 12.5459 21.1838 15.1618 22.6942 18.5049C23.6193 20.5526 25.4996 22.7028 27.404 22.068C28.735 21.2033 29.1466 19.0159 28.4484 16.3547ZM26.6259 21.5356C25.4061 21.3915 24.6457 20.7836 23.6036 19.0987C23.4139 18.7921 23.2149 18.4497 23.0021 18.068C22.9743 18.0182 22.9533 17.965 22.9396 17.9097C22.7251 17.0477 22.5799 16.3358 22.493 15.7404C22.1274 13.2356 22.7936 12.7926 23.6771 11.9111C25.9296 11.7063 27.445 14.2046 27.9979 16.0066C29.247 19.754 27.7931 21.5356 26.6259 21.5356Z" fill="#E4B35F"/>
<path d="M25.131 15.1261C26.1549 15.1261 27.0764 17.1534 26.1344 17.8291C24.8238 18.0749 24.3528 15.7609 25.131 15.1261Z" fill="url(#paint15_linear_462_10430)"/>
<path d="M22.493 15.7404C22.5799 16.3358 22.7251 17.0477 22.9396 17.9097C22.9533 17.965 22.9743 18.0182 23.0021 18.068C23.2149 18.4497 23.4139 18.7921 23.6036 19.0987L26.1344 17.8291C24.8238 18.0749 24.3528 15.7609 25.131 15.1261L22.493 15.7404Z" fill="#2C1B00"/>
<path d="M27.7112 16.3547C26.9312 13.7063 25.602 12.3207 23.6771 11.9111C22.7936 12.7926 22.1274 13.2356 22.493 15.7404L25.131 15.1261C26.1549 15.1261 27.0764 17.1534 26.1344 17.8291L23.6036 19.0987C24.6457 20.7836 25.4061 21.3915 26.6259 21.5356C28.2106 20.5521 28.305 18.6482 27.7112 16.3547Z" fill="#0A3C37"/>
<path d="M23.6771 11.9111C25.602 12.3207 26.9312 13.7063 27.7112 16.3547C28.305 18.6482 28.2106 20.5521 26.6259 21.5356C27.7931 21.5356 29.247 19.754 27.9979 16.0066C27.445 14.2046 25.9296 11.7063 23.6771 11.9111Z" fill="#9B6A17"/>
<path d="M21.3836 13.0579C20.2866 15.0036 19.3211 15.955 17.1261 17.4454C17.1114 17.4553 17.0957 17.4643 17.0797 17.4717L16.309 17.8291C15.8956 19.4469 16.469 21.3103 18.0048 21.7608L18.6191 21.556C21.1814 21.2987 22.4029 21.0637 24.2095 21.8427C22.8882 20.6242 22.2675 19.9013 21.7317 18.423C20.8695 16.1822 20.8307 14.8599 21.3836 13.0579Z" fill="#0A3B37"/>
<path d="M18.9176 25.5892C18.9099 25.5764 18.9058 25.5618 18.9058 25.5469V24.1772L17.841 24.4843V25.854C17.841 25.8689 17.8451 25.8836 17.8528 25.8963L18.6191 27.1669L19.4788 26.9189C19.5823 26.8891 19.6293 26.7691 19.5737 26.6769L18.9176 25.5892Z" fill="url(#paint16_linear_462_10430)"/>
<path d="M18.0261 22.9976C18.0125 22.9793 18.0071 22.9563 18.0112 22.9339L18.1686 22.068L17.1038 22.3751L16.9463 23.2411C16.9423 23.2635 16.9477 23.2865 16.9613 23.3047L17.841 24.4843L18.9058 24.1772L18.0261 22.9976Z" fill="url(#paint17_linear_462_10430)"/>
<path d="M18.1686 22.068L18.0048 21.7608L16.9643 22.061C16.9518 22.0646 16.9457 22.0788 16.9519 22.0903L17.1038 22.3751L18.1686 22.068Z" fill="url(#paint18_linear_462_10430)"/>
<path d="M16.8085 26.6307C16.8141 26.6465 16.8223 26.6619 16.8326 26.6752C17.281 27.2516 17.8592 27.372 18.6191 27.1669L17.8528 25.8963C17.8451 25.8836 17.841 25.8689 17.841 25.854V24.4843L16.9613 23.3047C16.9477 23.2865 16.9423 23.2635 16.9463 23.2411L17.1038 22.3751L16.9519 22.0903C16.9457 22.0788 16.9518 22.0646 16.9643 22.061L18.0048 21.7608C16.469 21.3103 15.8956 19.4469 16.309 17.8291L12.9177 19.4019C12.8828 19.4181 12.8507 19.44 12.8248 19.4684C12.4524 19.8759 12.4139 20.4518 12.6397 21.2284C12.9354 22.153 13.2185 22.5646 14.2605 22.7574C14.2851 22.7619 14.3108 22.7606 14.3348 22.7537L15.5661 22.3993C15.6115 22.3862 15.6587 22.4148 15.6689 22.4609C16.0371 24.122 16.1922 24.898 16.8085 26.6307Z" fill="url(#paint19_linear_462_10430)"/>
<path d="M18.6191 27.1669C17.8592 27.372 17.281 27.2516 16.8326 26.6752C16.8223 26.6619 16.8141 26.6465 16.8085 26.6307C16.1922 24.898 16.0371 24.122 15.6689 22.4609C15.6587 22.4148 15.6115 22.3862 15.5661 22.3993L14.3348 22.7537C14.3108 22.7606 14.2851 22.7619 14.2605 22.7574C13.2185 22.5646 12.9354 22.153 12.6397 21.2284C12.4139 20.4518 12.4524 19.8759 12.8248 19.4684C12.8507 19.44 12.8828 19.4181 12.9177 19.4019L16.309 17.8291M18.6191 27.1669L19.4788 26.9189C19.5823 26.8891 19.6293 26.7691 19.5737 26.6769L18.9176 25.5892C18.9099 25.5764 18.9058 25.5618 18.9058 25.5469V24.1772M18.6191 27.1669L17.8528 25.8963C17.8451 25.8836 17.841 25.8689 17.841 25.854V24.4843M21.3836 13.0579C20.2866 15.0036 19.3211 15.955 17.1261 17.4454C17.1114 17.4553 17.0957 17.4643 17.0797 17.4717L16.309 17.8291M21.3836 13.0579C21.9647 11.8006 22.6942 11.1534 23.7385 11.0101M21.3836 13.0579C20.8307 14.8599 20.8695 16.1822 21.7317 18.423C22.2675 19.9013 22.8882 20.6242 24.2095 21.8427M23.7385 11.0101C25.991 11.3377 27.32 13.0521 28.4484 16.3547C29.1466 19.0159 28.735 21.2033 27.404 22.068M23.7385 11.0101C21.5474 12.5459 21.1838 15.1618 22.6942 18.5049C23.6193 20.5526 25.4996 22.7028 27.404 22.068M27.404 22.068C26.3653 22.7427 25.6757 22.7297 24.2095 21.8427M24.2095 21.8427C22.4029 21.0637 21.1814 21.2987 18.6191 21.556L18.0048 21.7608M18.0048 21.7608L18.1686 22.068M18.0048 21.7608C16.469 21.3103 15.8956 19.4469 16.309 17.8291M18.0048 21.7608L16.9643 22.061C16.9518 22.0646 16.9457 22.0788 16.9519 22.0903L17.1038 22.3751M18.1686 22.068L18.0112 22.9339C18.0071 22.9563 18.0125 22.9793 18.0261 22.9976L18.9058 24.1772M18.1686 22.068L17.1038 22.3751M18.9058 24.1772L17.841 24.4843M23.6771 11.9111C25.602 12.3207 26.9312 13.7063 27.7112 16.3547C28.305 18.6482 28.2106 20.5521 26.6259 21.5356M23.6771 11.9111C25.9296 11.7063 27.445 14.2046 27.9979 16.0066C29.247 19.754 27.7931 21.5356 26.6259 21.5356M23.6771 11.9111C22.7936 12.7926 22.1274 13.2356 22.493 15.7404M26.6259 21.5356C25.4061 21.3915 24.6457 20.7836 23.6036 19.0987M22.493 15.7404C22.5799 16.3358 22.7251 17.0477 22.9396 17.9097C22.9533 17.965 22.9743 18.0182 23.0021 18.068C23.2149 18.4497 23.4139 18.7921 23.6036 19.0987M22.493 15.7404L25.131 15.1261M25.131 15.1261C26.1549 15.1261 27.0764 17.1534 26.1344 17.8291M25.131 15.1261C24.3528 15.7609 24.8238 18.0749 26.1344 17.8291M26.1344 17.8291L23.6036 19.0987M17.1038 22.3751L16.9463 23.2411C16.9423 23.2635 16.9477 23.2865 16.9613 23.3047L17.841 24.4843" stroke="#2C1B00" stroke-width="0.125"/>
<defs>
<filter id="filter0_d_462_10430" x="2.45261" y="3.73895" width="35.0928" height="35.0934" filterUnits="userSpaceOnUse" color-interpolation-filters="sRGB">
<feFlood flood-opacity="0" result="BackgroundImageFix"/>
<feColorMatrix in="SourceAlpha" type="matrix" values="0 0 0 0 0 0 0 0 0 0 0 0 0 0 0 0 0 0 127 0" result="hardAlpha"/>
<feOffset dy="0.785674"/>
<feGaussianBlur stdDeviation="0.392837"/>
<feComposite in2="hardAlpha" operator="out"/>
<feColorMatrix type="matrix" values="0 0 0 0 0 0 0 0 0 0 0 0 0 0 0 0 0 0 0.25 0"/>
<feBlend mode="normal" in2="BackgroundImageFix" result="effect1_dropShadow_462_10430"/>
<feBlend mode="normal" in="SourceGraphic" in2="effect1_dropShadow_462_10430" result="shape"/>
</filter>
<filter id="filter1_d_462_10430" x="3.76229" y="4.26272" width="32.4754" height="32.4745" filterUnits="userSpaceOnUse" color-interpolation-filters="sRGB">
<feFlood flood-opacity="0" result="BackgroundImageFix"/>
<feColorMatrix in="SourceAlpha" type="matrix" values="0 0 0 0 0 0 0 0 0 0 0 0 0 0 0 0 0 0 127 0" result="hardAlpha"/>
<feOffset/>
<feGaussianBlur stdDeviation="1.04757"/>
<feComposite in2="hardAlpha" operator="out"/>
<feColorMatrix type="matrix" values="0 0 0 0 0 0 0 0 0 0 0 0 0 0 0 0 0 0 0.25 0"/>
<feBlend mode="normal" in2="BackgroundImageFix" result="effect1_dropShadow_462_10430"/>
<feBlend mode="normal" in="SourceGraphic" in2="effect1_dropShadow_462_10430" result="shape"/>
</filter>
<filter id="filter2_i_462_10430" x="5.85742" y="6.35785" width="28.2852" height="30.3794" filterUnits="userSpaceOnUse" color-interpolation-filters="sRGB">
<feFlood flood-opacity="0" result="BackgroundImageFix"/>
<feBlend mode="normal" in="SourceGraphic" in2="BackgroundImageFix" result="shape"/>
<feColorMatrix in="SourceAlpha" type="matrix" values="0 0 0 0 0 0 0 0 0 0 0 0 0 0 0 0 0 0 127 0" result="hardAlpha"/>
<feOffset dy="5.49972"/>
<feGaussianBlur stdDeviation="1.04757"/>
<feComposite in2="hardAlpha" operator="arithmetic" k2="-1" k3="1"/>
<feColorMatrix type="matrix" values="0 0 0 0 0.2 0 0 0 0 0.138824 0 0 0 0 0.0627451 0 0 0 0.6 0"/>
<feBlend mode="normal" in2="shape" result="effect1_innerShadow_462_10430"/>
</filter>
<filter id="filter3_i_462_10430" x="5.33364" y="6.35785" width="28.8089" height="30.3794" filterUnits="userSpaceOnUse" color-interpolation-filters="sRGB">
<feFlood flood-opacity="0" result="BackgroundImageFix"/>
<feBlend mode="normal" in="SourceGraphic" in2="BackgroundImageFix" result="shape"/>
<feColorMatrix in="SourceAlpha" type="matrix" values="0 0 0 0 0 0 0 0 0 0 0 0 0 0 0 0 0 0 127 0" result="hardAlpha"/>
<feOffset dx="-0.523783" dy="2.88081"/>
<feGaussianBlur stdDeviation="1.04757"/>
<feComposite in2="hardAlpha" operator="arithmetic" k2="-1" k3="1"/>
<feColorMatrix type="matrix" values="0 0 0 0 0.2 0 0 0 0 0.138824 0 0 0 0 0.0627451 0 0 0 0.3 0"/>
<feBlend mode="normal" in2="shape" result="effect1_innerShadow_462_10430"/>
</filter>
<filter id="filter4_f_462_10430" x="6.1204" y="2.68357" width="29.3315" height="14.2734" filterUnits="userSpaceOnUse" color-interpolation-filters="sRGB">
<feFlood flood-opacity="0" result="BackgroundImageFix"/>
<feBlend mode="normal" in="SourceGraphic" in2="BackgroundImageFix" result="shape"/>
<feGaussianBlur stdDeviation="0.523783" result="effect1_foregroundBlur_462_10430"/>
</filter>
<radialGradient id="paint0_radial_462_10430" cx="0" cy="0" r="1" gradientUnits="userSpaceOnUse" gradientTransform="translate(19.9993 20.5) rotate(90) scale(16.761)">
<stop offset="0.852574" stop-color="#52545A"/>
<stop offset="0.921987" stop-color="#6E6E79"/>
<stop offset="1" stop-color="#60646A"/>
</radialGradient>
<linearGradient id="paint1_linear_462_10430" x1="19.9996" y1="34.6421" x2="19.9996" y2="6.35785" gradientUnits="userSpaceOnUse">
<stop offset="0.624028" stop-color="#4CFFF3"/>
<stop offset="0.852574" stop-color="#5BF4EA"/>
<stop offset="0.921987" stop-color="#51F2E2"/>
<stop offset="1" stop-color="#A6FAEE"/>
</linearGradient>
<linearGradient id="paint2_linear_462_10430" x1="10" y1="10.5" x2="30" y2="30.5" gradientUnits="userSpaceOnUse">
<stop offset="0.624028" stop-color="#4CFFF3" stop-opacity="0"/>
<stop offset="0.852574" stop-color="#5BF4D8"/>
<stop offset="0.921987" stop-color="#51F2E5"/>
<stop offset="1" stop-color="#A6FAF5"/>
</linearGradient>
<linearGradient id="paint3_linear_462_10430" x1="14.2967" y1="14.0518" x2="25.7134" y2="25.4923" gradientUnits="userSpaceOnUse">
<stop stop-color="#093833"/>
<stop offset="1" stop-color="#0A403D"/>
</linearGradient>
<linearGradient id="paint4_linear_462_10430" x1="14.2967" y1="14.0518" x2="25.7134" y2="25.4923" gradientUnits="userSpaceOnUse">
<stop stop-color="#093833"/>
<stop offset="1" stop-color="#0A403D"/>
</linearGradient>
<linearGradient id="paint5_linear_462_10430" x1="14.2967" y1="14.0518" x2="25.7134" y2="25.4923" gradientUnits="userSpaceOnUse">
<stop stop-color="#093833"/>
<stop offset="1" stop-color="#0A403D"/>
</linearGradient>
<linearGradient id="paint6_linear_462_10430" x1="14.2967" y1="14.0518" x2="25.7134" y2="25.4923" gradientUnits="userSpaceOnUse">
<stop stop-color="#093833"/>
<stop offset="1" stop-color="#0A403D"/>
</linearGradient>
<linearGradient id="paint7_linear_462_10430" x1="14.2967" y1="14.0518" x2="25.7134" y2="25.4923" gradientUnits="userSpaceOnUse">
<stop stop-color="#093833"/>
<stop offset="1" stop-color="#0A403D"/>
</linearGradient>
<linearGradient id="paint8_linear_462_10430" x1="14.2967" y1="14.0518" x2="25.7134" y2="25.4923" gradientUnits="userSpaceOnUse">
<stop stop-color="#093833"/>
<stop offset="1" stop-color="#0A403D"/>
</linearGradient>
<linearGradient id="paint9_linear_462_10430" x1="14.2967" y1="14.0518" x2="25.7134" y2="25.4923" gradientUnits="userSpaceOnUse">
<stop stop-color="#093833"/>
<stop offset="1" stop-color="#0A403D"/>
</linearGradient>
<linearGradient id="paint10_linear_462_10430" x1="14.2967" y1="14.0518" x2="25.7134" y2="25.4923" gradientUnits="userSpaceOnUse">
<stop stop-color="#093833"/>
<stop offset="1" stop-color="#0A403D"/>
</linearGradient>
<linearGradient id="paint11_linear_462_10430" x1="14.2967" y1="14.0518" x2="25.7134" y2="25.4923" gradientUnits="userSpaceOnUse">
<stop stop-color="#093833"/>
<stop offset="1" stop-color="#0A403D"/>
</linearGradient>
<linearGradient id="paint12_linear_462_10430" x1="14.2967" y1="14.0518" x2="25.7134" y2="25.4923" gradientUnits="userSpaceOnUse">
<stop stop-color="#093833"/>
<stop offset="1" stop-color="#0A403D"/>
</linearGradient>
<linearGradient id="paint13_linear_462_10430" x1="14.2967" y1="14.0518" x2="25.7134" y2="25.4923" gradientUnits="userSpaceOnUse">
<stop stop-color="#093833"/>
<stop offset="1" stop-color="#0A403D"/>
</linearGradient>
<linearGradient id="paint14_linear_462_10430" x1="14.9217" y1="13.4268" x2="26.3384" y2="24.8673" gradientUnits="userSpaceOnUse">
<stop stop-color="#FFB359"/>
<stop offset="1" stop-color="#FBBB3F"/>
</linearGradient>
<linearGradient id="paint15_linear_462_10430" x1="14.9217" y1="13.4268" x2="26.3384" y2="24.8673" gradientUnits="userSpaceOnUse">
<stop stop-color="#FFB359"/>
<stop offset="1" stop-color="#FBBB3F"/>
</linearGradient>
<linearGradient id="paint16_linear_462_10430" x1="18.5167" y1="24.2796" x2="19.1925" y2="27.0235" gradientUnits="userSpaceOnUse">
<stop stop-color="#FCBA44"/>
<stop offset="0.57" stop-color="#D9A13D"/>
<stop offset="1" stop-color="#FCBA44"/>
</linearGradient>
<linearGradient id="paint17_linear_462_10430" x1="17.6567" y1="22.2318" x2="18.4144" y2="24.4024" gradientUnits="userSpaceOnUse">
<stop stop-color="#FBB944"/>
<stop offset="0.367781" stop-color="#E0A63F"/>
<stop offset="1" stop-color="#F9B844"/>
</linearGradient>
<linearGradient id="paint18_linear_462_10430" x1="14.9217" y1="13.4268" x2="26.3384" y2="24.8673" gradientUnits="userSpaceOnUse">
<stop stop-color="#FFB359"/>
<stop offset="1" stop-color="#FBBB3F"/>
</linearGradient>
<linearGradient id="paint19_linear_462_10430" x1="18.2505" y1="18.9349" x2="13.1721" y2="21.6584" gradientUnits="userSpaceOnUse">
<stop stop-color="#C08F37"/>
<stop offset="1" stop-color="#F9B844"/>
</linearGradient>
</defs>
</svg>
