<svg width="25" height="27" viewBox="0 0 25 27" fill="none" xmlns="http://www.w3.org/2000/svg">
<rect x="0.25" y="1.75" width="23.5" height="24.5" rx="2.75" fill="url(#paint0_linear_462_10292)" stroke="white" strokeWidth="0.5"/>
<rect x="3" y="5.5" width="18" height="2" rx="1" fill="url(#paint1_linear_462_10292)"/>
<rect x="3" y="10.5" width="18" height="2" rx="1" fill="url(#paint2_linear_462_10292)"/>
<rect x="3" y="15.5" width="18" height="2" rx="1" fill="url(#paint3_linear_462_10292)"/>
<rect x="3" y="20.5" width="18" height="2" rx="1" fill="url(#paint4_linear_462_10292)"/>
<rect x="1.25" y="0.75" width="23.5" height="24.5" rx="2.75" fill="url(#paint5_linear_462_10292)" stroke="white" strokeWidth="0.5"/>
<rect x="4" y="4.5" width="18" height="2" rx="1" fill="url(#paint6_linear_462_10292)"/>
<rect x="4" y="9.5" width="18" height="2" rx="1" fill="url(#paint7_linear_462_10292)"/>
<rect x="4" y="14.5" width="18" height="2" rx="1" fill="url(#paint8_linear_462_10292)"/>
<rect x="4" y="19.5" width="18" height="2" rx="1" fill="url(#paint9_linear_462_10292)"/>
<defs>
<linearGradient id="paint0_linear_462_10292" x1="3.56923" y1="5.21795" x2="21.1187" y2="22.0654" gradientUnits="userSpaceOnUse">
<stop stopColor="#093833"/>
<stop offset="1" stopColor="#0A403D"/>
</linearGradient>
<linearGradient id="paint1_linear_462_10292" x1="5.67692" y1="5.79744" x2="5.98537" y2="8.57342" gradientUnits="userSpaceOnUse">
<stop stopColor="#FFB359"/>
<stop offset="1" stopColor="#FBBB3F"/>
</linearGradient>
<linearGradient id="paint2_linear_462_10292" x1="5.67692" y1="10.7974" x2="5.98537" y2="13.5734" gradientUnits="userSpaceOnUse">
<stop stopColor="#FFF859"/>
<stop offset="1" stopColor="#70FB3F"/>
</linearGradient>
<linearGradient id="paint3_linear_462_10292" x1="5.67692" y1="15.7974" x2="5.98537" y2="18.5734" gradientUnits="userSpaceOnUse">
<stop stopColor="#FFF859"/>
<stop offset="1" stopColor="#70FB3F"/>
</linearGradient>
<linearGradient id="paint4_linear_462_10292" x1="5.67692" y1="20.7974" x2="5.98537" y2="23.5734" gradientUnits="userSpaceOnUse">
<stop stopColor="#FFF859"/>
<stop offset="1" stopColor="#70FB3F"/>
</linearGradient>
<linearGradient id="paint5_linear_462_10292" x1="4.56923" y1="4.21795" x2="22.1187" y2="21.0654" gradientUnits="userSpaceOnUse">
<stop stopColor="#093833"/>
<stop offset="1" stopColor="#0A403D"/>
</linearGradient>
<linearGradient id="paint6_linear_462_10292" x1="6.67692" y1="4.79744" x2="6.98537" y2="7.57342" gradientUnits="userSpaceOnUse">
<stop stopColor="#FFB359"/>
<stop offset="1" stopColor="#FBBB3F"/>
</linearGradient>
<linearGradient id="paint7_linear_462_10292" x1="6.67692" y1="9.79744" x2="6.98537" y2="12.5734" gradientUnits="userSpaceOnUse">
<stop stopColor="#FFB359"/>
<stop offset="1" stopColor="#FBBB3F"/>
</linearGradient>
<linearGradient id="paint8_linear_462_10292" x1="6.67692" y1="14.7974" x2="6.98537" y2="17.5734" gradientUnits="userSpaceOnUse">
<stop stopColor="#FFB359"/>
<stop offset="1" stopColor="#FBBB3F"/>
</linearGradient>
<linearGradient id="paint9_linear_462_10292" x1="6.67692" y1="19.7974" x2="6.98537" y2="22.5734" gradientUnits="userSpaceOnUse">
<stop stopColor="#FFB359"/>
<stop offset="1" stopColor="#FBBB3F"/>
</linearGradient>
</defs>
</svg>
